<svg id="svg" version="1.1" xmlns="http://www.w3.org/2000/svg" xmlns:xlink="http://www.w3.org/1999/xlink" width="400" height="401.1661807580175" viewBox="0, 0, 400,401.1661807580175"><g id="svgg"><path id="path0" d="M8.286 157.814 C 6.202 158.682,5.854 157.435,19.327 197.342 C 29.666 227.966,32.233 235.185,33.092 236.054 L 34.148 237.123 44.110 237.123 C 55.189 237.123,55.998 236.968,56.926 234.668 C 57.200 233.987,62.988 216.928,69.786 196.759 C 83.026 157.483,82.768 158.423,80.463 157.781 C 78.929 157.355,64.874 157.397,63.304 157.833 C 61.514 158.330,62.418 155.712,54.450 183.479 C 50.677 196.628,47.421 207.356,47.216 207.319 C 47.010 207.283,43.518 196.397,39.456 183.128 C 35.010 168.605,31.794 158.730,31.376 158.316 C 30.595 157.541,10.014 157.094,8.286 157.814 M115.614 157.839 C 114.039 158.314,115.228 155.254,100.441 196.883 C 87.239 234.048,86.672 235.895,88.215 236.721 C 89.167 237.230,105.316 237.263,106.643 236.758 C 107.685 236.362,108.070 235.495,110.881 227.211 C 111.752 224.645,112.633 222.328,112.839 222.060 C 113.125 221.690,116.112 221.574,125.402 221.574 L 137.589 221.574 138.129 222.643 C 138.426 223.231,139.582 226.468,140.698 229.836 C 143.345 237.822,141.944 237.123,155.323 237.123 C 167.227 237.123,167.541 237.065,167.541 234.849 C 167.541 232.726,141.500 159.983,140.314 158.795 L 139.150 157.629 127.981 157.553 C 121.838 157.512,116.273 157.640,115.614 157.839 M177.259 157.692 C 175.678 158.289,175.705 157.610,175.705 197.353 C 175.705 235.050,175.715 235.579,176.482 236.346 C 177.245 237.109,177.778 237.123,205.831 237.123 C 233.884 237.123,234.416 237.109,235.180 236.346 C 236.268 235.257,236.387 220.860,235.315 219.970 C 234.796 219.539,231.350 219.415,217.445 219.324 L 200.217 219.212 200.109 188.925 C 200.022 164.727,199.899 158.538,199.495 158.134 C 198.974 157.612,178.546 157.207,177.259 157.692 M246.064 157.700 C 244.483 158.276,244.509 157.610,244.509 197.353 C 244.509 235.050,244.520 235.579,245.287 236.346 C 246.360 237.420,304.708 237.585,306.230 236.518 C 307.400 235.699,307.598 220.921,306.452 219.970 C 305.932 219.538,302.308 219.415,287.404 219.325 L 268.999 219.213 268.999 212.891 C 268.999 208.493,269.141 206.428,269.466 206.103 C 269.806 205.763,272.834 205.637,280.661 205.637 C 288.487 205.637,291.516 205.510,291.856 205.170 C 292.633 204.394,292.502 189.934,291.712 189.143 C 291.186 188.618,289.620 188.533,280.516 188.533 C 272.802 188.533,269.805 188.406,269.466 188.066 C 268.783 187.384,268.816 176.341,269.502 175.771 C 269.839 175.492,275.737 175.316,287.370 175.238 C 303.423 175.130,304.787 175.069,305.429 174.428 C 306.399 173.459,306.710 159.649,305.789 158.406 C 305.227 157.647,248.067 156.972,246.064 157.700 M129.235 192.394 C 131.111 197.742,132.544 202.385,132.419 202.711 C 132.078 203.600,118.369 203.598,118.028 202.709 C 117.804 202.126,124.126 183.749,124.876 182.803 C 125.532 181.975,125.738 182.428,129.235 192.394 " stroke="none" fill="#f4c404" fill-rule="evenodd"></path><path id="path1" d="M0.000 200.583 L 0.000 401.166 200.000 401.166 L 400.000 401.166 400.000 200.583 L 400.000 0.000 200.000 0.000 L 0.000 0.000 0.000 200.583 M362.440 153.742 C 383.036 156.846,395.505 174.115,394.439 198.056 C 393.198 225.922,376.119 242.788,351.020 240.932 C 338.555 240.010,326.225 231.855,323.589 222.789 C 322.166 217.891,322.775 217.395,334.415 213.981 C 344.898 210.907,344.614 210.885,347.345 214.993 C 350.358 219.525,352.525 220.595,356.820 219.674 C 361.793 218.607,365.403 213.609,365.403 207.791 L 365.403 206.139 361.419 207.498 C 349.108 211.696,332.483 207.768,325.307 198.967 C 307.566 177.208,330.755 148.966,362.440 153.742 M31.376 158.316 C 31.794 158.730,35.010 168.605,39.456 183.128 C 43.518 196.397,47.010 207.283,47.216 207.319 C 47.421 207.356,50.677 196.628,54.450 183.479 C 62.418 155.712,61.514 158.330,63.304 157.833 C 64.874 157.397,78.929 157.355,80.463 157.781 C 82.768 158.423,83.026 157.483,69.786 196.759 C 62.988 216.928,57.200 233.987,56.926 234.668 C 55.998 236.968,55.189 237.123,44.110 237.123 L 34.148 237.123 33.092 236.054 C 31.562 234.505,6.410 160.086,7.027 158.933 C 7.748 157.586,8.931 157.459,19.909 157.545 C 29.623 157.620,30.751 157.696,31.376 158.316 M140.314 158.795 C 141.500 159.983,167.541 232.726,167.541 234.849 C 167.541 237.065,167.227 237.123,155.323 237.123 C 141.944 237.123,143.345 237.822,140.698 229.836 C 139.582 226.468,138.426 223.231,138.129 222.643 L 137.589 221.574 125.402 221.574 C 116.112 221.574,113.125 221.690,112.839 222.060 C 112.633 222.328,111.752 224.645,110.881 227.211 C 107.173 238.139,108.562 237.123,97.325 237.123 C 87.905 237.123,87.464 237.022,87.464 234.867 C 87.464 233.640,112.173 163.030,113.917 159.275 C 114.684 157.623,115.920 157.472,127.981 157.553 L 139.150 157.629 140.314 158.795 M199.495 158.134 C 199.899 158.538,200.022 164.727,200.109 188.925 L 200.217 219.212 217.445 219.324 C 231.350 219.415,234.796 219.539,235.315 219.970 C 236.387 220.860,236.268 235.257,235.180 236.346 C 234.416 237.109,233.884 237.123,205.831 237.123 C 177.778 237.123,177.245 237.109,176.482 236.346 C 175.715 235.579,175.705 235.050,175.705 197.353 C 175.705 157.610,175.678 158.289,177.259 157.692 C 178.546 157.207,198.974 157.612,199.495 158.134 M305.789 158.406 C 306.710 159.649,306.399 173.459,305.429 174.428 C 304.787 175.069,303.423 175.130,287.370 175.238 C 275.737 175.316,269.839 175.492,269.502 175.771 C 268.816 176.341,268.783 187.384,269.466 188.066 C 269.805 188.406,272.802 188.533,280.516 188.533 C 289.620 188.533,291.186 188.618,291.712 189.143 C 292.502 189.934,292.633 204.394,291.856 205.170 C 291.516 205.510,288.487 205.637,280.661 205.637 C 272.834 205.637,269.806 205.763,269.466 206.103 C 269.141 206.428,268.999 208.493,268.999 212.891 L 268.999 219.213 287.404 219.325 C 302.308 219.415,305.932 219.538,306.452 219.970 C 307.598 220.921,307.400 235.699,306.230 236.518 C 304.708 237.585,246.360 237.420,245.287 236.346 C 244.316 235.375,244.033 159.739,244.995 158.525 C 245.818 157.488,245.855 157.486,275.930 157.559 C 304.721 157.628,305.223 157.642,305.789 158.406 M348.299 157.983 C 330.754 161.131,320.214 174.755,324.382 188.900 C 328.217 201.913,345.750 208.505,361.824 202.977 C 368.282 200.756,369.678 201.403,369.660 206.608 C 369.604 223.057,352.887 230.495,344.229 217.923 L 342.794 215.840 338.258 217.179 C 325.424 220.967,326.358 220.218,328.983 224.632 C 336.334 236.990,358.484 240.779,372.940 232.151 C 394.360 219.366,396.655 178.658,376.784 163.979 C 369.654 158.712,357.959 156.250,348.299 157.983 M360.055 169.737 C 368.408 172.080,372.943 186.851,366.470 190.632 C 361.800 193.360,354.671 193.925,350.523 191.896 C 337.413 185.481,345.895 165.764,360.055 169.737 M352.536 174.455 C 347.848 176.903,346.763 183.857,350.569 187.060 C 353.256 189.321,358.985 189.570,363.260 187.613 L 365.467 186.603 365.211 183.972 C 364.360 175.220,358.908 171.126,352.536 174.455 M124.876 182.803 C 124.126 183.749,117.804 202.126,118.028 202.709 C 118.369 203.598,132.078 203.600,132.419 202.711 C 132.645 202.122,126.081 182.830,125.541 182.496 C 125.385 182.400,125.086 182.538,124.876 182.803 " stroke="none" fill="#f4f4f4" fill-rule="evenodd"></path><path id="path2" d="M348.489 153.754 C 323.433 157.414,311.076 181.513,325.307 198.967 C 332.483 207.768,349.108 211.696,361.419 207.498 L 365.403 206.139 365.403 207.791 C 365.403 213.609,361.793 218.607,356.820 219.674 C 352.525 220.595,350.358 219.525,347.345 214.993 C 344.614 210.885,344.898 210.907,334.415 213.981 C 322.775 217.395,322.166 217.891,323.589 222.789 C 326.225 231.855,338.555 240.010,351.020 240.932 C 376.119 242.788,393.198 225.922,394.439 198.056 C 395.756 168.494,376.260 149.697,348.489 153.754 M365.209 158.577 C 380.496 162.552,389.442 174.828,390.163 192.819 C 391.291 220.998,375.070 239.184,351.012 236.715 C 340.102 235.596,329.196 228.542,327.489 221.501 C 327.206 220.334,326.194 220.740,338.258 217.179 L 342.794 215.840 344.229 217.923 C 351.691 228.757,366.222 224.928,369.133 211.361 C 371.040 202.474,369.252 200.423,361.824 202.977 C 339.841 210.537,318.823 195.782,324.359 176.676 C 328.449 162.560,347.708 154.028,365.209 158.577 M353.158 169.579 C 339.759 173.049,341.797 192.313,355.649 193.115 C 363.991 193.598,369.394 190.195,369.332 184.499 C 369.219 174.041,361.922 167.310,353.158 169.579 M359.818 174.006 C 362.856 175.447,364.717 178.885,365.211 183.972 L 365.467 186.603 363.260 187.613 C 357.505 190.248,350.545 188.878,348.830 184.773 C 346.071 178.170,353.419 170.969,359.818 174.006 " stroke="none" fill="#747c74" fill-rule="evenodd"></path></g></svg>